<?xml version="1.0" encoding="UTF-8"?>
<svg id="Layer_1" data-name="Layer 1" xmlns="http://www.w3.org/2000/svg" viewBox="0 0 425.7 330.17">
  <path d="m425.7,75.57c-11.43,4.08-21.84,7.8-32.62,11.65v5.71c0,42.33.01,84.66-.03,126.99,0,2.92.52,4.8,3.28,6.88,12.66,9.57,14.59,26.88,2.53,40.07,8.79,7.49,8.08,18.19,9.2,28.28,1.28,11.52,2.41,23.07,3.64,35.02h-61.61c.34-3.17.72-6.47,1.06-9.77,1.38-13.35,2.27-26.77,4.38-40,.8-5.04,4.42-9.62,6.88-14.67-10.16-10.77-9.9-24.08-.04-36.58.21-.26.4-.63.68-.72,7.28-2.37,6.34-8.28,6.32-14.05-.09-37.66-.04-75.33-.04-112.99v-5.92c-15.29,5.53-29.87,10.93-44.55,16.07-26.24,9.19-52.55,18.19-78.81,27.32-8.35,2.9-16.73,5.74-24.92,9.05-5.14,2.08-9.64,1.99-14.95.03-17.34-6.41-34.96-12.06-52.4-18.19-42.16-14.82-84.28-29.75-126.42-44.62-8.74-3.09-17.51-6.11-27.28-9.51,17.97-6.41,34.83-12.4,51.68-18.42,30.42-10.88,60.83-21.79,91.25-32.67,22.26-7.96,44.5-15.97,66.82-23.77,2.29-.8,5.29-1.06,7.52-.29,20.03,6.95,39.99,14.14,59.92,21.36,30.66,11.11,61.27,22.35,91.93,33.47,18.44,6.69,36.93,13.24,56.57,20.27Z"/>
  <path d="m85.51,131.1c7.42,2.39,14.18,4.42,20.84,6.76,18.5,6.5,36.93,13.18,55.42,19.7,16.53,5.82,33.09,11.55,49.66,17.24,1.25.43,2.85.72,4.02.31,16.39-5.69,32.75-11.5,49.09-17.32,23.91-8.52,47.79-17.09,71.7-25.6,1.05-.37,2.25-.34,3.93-.57-.35,6.12-.54,11.99-1.06,17.83-.44,4.86-1.5,9.66-1.89,14.52-1.1,13.59-1.91,27.2-3,40.79-.88,11.11-1.52,22.27-3.16,33.27-1.14,7.68-7.43,12.1-13.72,15.58-14.68,8.13-30.71,12.19-47.11,15.27-24.54,4.6-49.32,5.65-74.12,4.69-13.81-.54-27.55-3-41.29-4.85-14.95-2.01-29.3-6.33-42.73-13.15-7.54-3.83-14.88-8.56-17.03-17.74-.89-3.78-1.21-7.72-1.53-11.6-.76-9.32-1.23-18.67-2.07-27.98-1.19-13.2-2.66-26.38-3.91-39.58-.48-5.07-.69-10.16-1.05-15.24-.28-3.86-.62-7.71-.99-12.33Z"/>
</svg>