<?xml version="1.0" encoding="UTF-8"?>
<svg id="Layer_1" data-name="Layer 1" xmlns="http://www.w3.org/2000/svg" viewBox="0 0 383.23 269.46">
  <path d="m383.23,241.78c-1.24,2.65-2.48,5.3-3.58,7.66-38.36-38.35-76.7-76.7-114.92-114.92,37.97-37.92,76.31-76.2,114.89-114.71,1.13,2.69,2.38,5.67,3.62,8.64v213.33Z"/>
  <path d="m18.69,2.52C24.63,1.6,29.72.11,34.81.1c103.89-.14,207.78-.14,311.67,0,5.48,0,10.96,1.42,16.44,2.17.19.53.37,1.06.56,1.58-1.29.97-2.71,1.8-3.84,2.92-23.22,23.17-46.44,46.33-69.58,69.59-29.44,29.59-58.91,59.15-88.12,88.97-5.84,5.96-15.61,5.89-21.4.04C127.4,111.69,74.04,58.21,20.74,4.67c-.35-.35-.68-.71-2.05-2.15Z"/>
  <path d="m19.01,266.86c38.98-39.03,77.22-77.31,115.68-115.81.76.68,1.6,1.35,2.36,2.11,10.15,10.13,20.23,20.34,30.45,30.4,6.51,6.41,14.67,9.61,23.63,9.42,9.45-.2,18.03-3.39,24.91-10.4,9.79-9.97,19.78-19.73,29.56-29.7,1.98-2.02,3.17-1.91,5.09.04,10.04,10.24,20.23,20.33,30.34,30.51,26.95,27.15,53.88,54.32,80.82,81.48.34.35.67.72,1.73,1.86-4.45.98-8.32,2.57-12.19,2.58-106.88.14-213.77.14-320.65,0-3.72,0-7.44-1.55-11.72-2.5Z"/>
  <path d="m2.96,251.3c-1.16-5.03-2.83-8.94-2.84-12.85C-.04,169.35-.04,100.24.11,31.14c0-3.94,1.59-7.87,2.45-11.81.42-.09.85-.17,1.27-.26,38.11,38.48,76.22,76.95,114.57,115.66C80.28,173.23,42.1,211.77,2.96,251.3Z"/>
</svg>