<?xml version="1.0" encoding="UTF-8"?>
<svg id="Layer_1" data-name="Layer 1" xmlns="http://www.w3.org/2000/svg" viewBox="0 0 408.61 408.68">
  <path d="m0,375.15V33.52c.63-.13.72-.6.84-1.14C3.5,21.2,9.28,12.38,19.32,6.25c4.76-2.9,9.91-4.38,14.99-6.25h339.18c.13.64.62.68,1.16.78,8.95,1.62,16.52,5.98,22.71,12.45,8.12,8.49,11.23,19.05,11.23,30.6.02,107.05.02,214.1-.04,321.15,0,3.9-.31,7.9-1.21,11.67-2.22,9.33-7.14,17-14.79,23-6.82,5.34-14.36,8.93-22.99,8.94-109.69.1-219.38.07-329.08.06-14.33,0-25.18-6.47-33.47-17.9-3.46-4.76-4.84-10.34-7.02-15.61Zm224.78-187.52c0-7.43-.15-13.8.07-20.15.1-3-.55-4.06-3.85-4.02-17.95.18-35.91.16-53.86.01-2.96-.02-3.7.66-3.7,3.67.1,58.93.1,117.85,0,176.78,0,2.83.73,3.48,3.5,3.46,17.95-.13,35.91-.16,53.86.02,3.41.03,4.06-.99,4.05-4.22-.13-33.79-.02-67.57-.12-101.36-.03-7.96,1.67-15.15,6.67-21.54,7.57-9.67,19.15-13.11,30.7-10.41,15.12,3.53,23.93,16.48,23.9,32.26-.06,33.79.03,67.57-.1,101.36-.01,3.2.89,3.92,3.97,3.89,17.95-.15,35.91-.17,53.86.02,3.18.03,3.59-1,3.58-3.79-.12-19.02.15-38.05-.12-57.06-.29-20.96,1-41.93-.75-62.88-.66-7.9-2.66-15.33-6.04-22.33-8.57-17.75-22.15-30.29-40.56-37.35-10-3.83-20.66-5.92-31.12-4.02-17.65,3.21-32.76,11.47-43.94,27.67ZM61.36,255.46c0,29.25.05,58.49-.07,87.74-.01,3.14.48,4.24,3.98,4.2,17.81-.21,35.62-.16,53.43-.03,3,.02,4.01-.57,4.01-3.85-.11-58.76-.1-117.52-.02-176.28,0-2.9-.58-3.81-3.67-3.78-17.94.16-35.89.16-53.83,0-3.07-.03-3.92.69-3.91,3.86.13,29.38.08,58.76.08,88.14Zm29.95-199.59c-20.6-1.37-35.28,17.03-36.34,33.72-1.32,20.9,16.65,40.16,37.67,39.07,19.42-1.01,35.72-16.07,35.73-36.69,0-18.96-14.75-37.03-37.07-36.1Z"/>
</svg>